<?xml version="1.0" standalone="no"?><!DOCTYPE svg PUBLIC "-//W3C//DTD SVG 1.1//EN" "http://www.w3.org/Graphics/SVG/1.1/DTD/svg11.dtd"><svg t="1651559374333" class="icon" viewBox="0 0 1024 1024" version="1.1" xmlns="http://www.w3.org/2000/svg" p-id="12323" xmlns:xlink="http://www.w3.org/1999/xlink" width="200" height="200"><defs><style type="text/css">@font-face { font-family: feedback-iconfont; src: url("//at.alicdn.com/t/font_1031158_u69w8yhxdu.woff2?t=1630033759944") format("woff2"), url("//at.alicdn.com/t/font_1031158_u69w8yhxdu.woff?t=1630033759944") format("woff"), url("//at.alicdn.com/t/font_1031158_u69w8yhxdu.ttf?t=1630033759944") format("truetype"); }
</style></defs><path d="M959.136 909.408c-0.576-12.416-3.744-27.456-9.536-45.12-5.76-17.6-13.824-31.616-24.192-41.984-9.824-10.112-29.44-21.248-58.848-33.344a2384.544 2384.544 0 0 0-99.84-38.4c-37.216-13.44-64.608-24.64-82.176-33.6a120 120 0 0 1-51.04-49.6 138.016 138.016 0 0 1-18.176-67.808c0-15.904 9.536-34.656 28.608-56.32 10.048-11.552 19.52-29.536 28.48-53.728 26.496-10.72 39.776-33.12 39.776-67.2 0-25.088-4.16-43.2-12.544-54.176 2.336-15.808 4.96-40.288 7.808-73.248a151.936 151.936 0 0 0-12.8-73.44 203.68 203.68 0 0 0-43.008-63.872 220.928 220.928 0 0 0-64.224-44.48A178.944 178.944 0 0 0 512 96c-25.376 0-50.784 5.728-75.424 17.088-23.872 10.88-45.632 25.92-64.224 44.48a203.168 203.168 0 0 0-43.04 63.872 151.904 151.904 0 0 0-12.768 73.44c2.88 32.96 5.44 57.376 7.776 73.28-8.384 10.976-12.512 29.056-12.512 54.144 0 34.08 13.216 56.48 39.776 67.2 8.96 24.256 18.432 42.176 28.544 53.696 19.008 21.696 28.544 40.448 28.544 56.352 0 23.392-6.08 46.016-18.176 67.84a120 120 0 0 1-51.04 49.6c-17.6 8.96-44.96 20.096-82.176 33.6-37.152 13.408-70.496 26.176-99.872 38.336-29.408 12.16-49.024 23.264-58.816 33.344-10.368 10.432-18.464 24.416-24.224 42.016-5.76 17.664-8.96 32.672-9.504 45.12L64 928h896l-0.864-18.656v0.064z" fill="#bfbfbf" p-id="12324"></path></svg>