<?xml version="1.0" standalone="no"?><!DOCTYPE svg PUBLIC "-//W3C//DTD SVG 1.1//EN" "http://www.w3.org/Graphics/SVG/1.1/DTD/svg11.dtd"><svg t="1649490494031" class="icon" viewBox="0 0 1024 1024" version="1.1" xmlns="http://www.w3.org/2000/svg" p-id="59722" xmlns:xlink="http://www.w3.org/1999/xlink" width="200" height="200"><defs><style type="text/css">@font-face { font-family: feedback-iconfont; src: url("//at.alicdn.com/t/font_1031158_u69w8yhxdu.woff2?t=1630033759944") format("woff2"), url("//at.alicdn.com/t/font_1031158_u69w8yhxdu.woff?t=1630033759944") format("woff"), url("//at.alicdn.com/t/font_1031158_u69w8yhxdu.ttf?t=1630033759944") format("truetype"); }
</style></defs><path d="M513.31320954 834.50881196c-11.12365723 0-20.0843811-8.96072388-20.08438111-19.85263826l0.23174286-432.66391754c0-10.96916198 8.96072388-19.85263825 20.0843811-19.85263824s20.0843811 8.96072388 20.0843811 19.85263825l-0.23174285 432.66391753c0 10.96916198-9.0379715 19.85263825-20.0843811 19.85263826z" fill="#FF9900" p-id="59723"></path><path d="M819.44552612 189.18219757H204.55447388c-22.17006683 0-40.16876221 17.99869538-40.16876221 40.16876221v565.22083282c0 22.17006683 17.99869538 40.16876221 40.16876221 40.16876221h614.89105224c22.17006683 0 40.16876221-17.99869538 40.16876221-40.16876221V229.35095978c0-22.09281922-17.99869538-40.16876221-40.16876221-40.1687622z m0 40.16876221v127.76756286H204.55447388V229.35095978h614.89105224z m0 565.29808045H204.55447388V397.36453247h614.89105224v397.28450775z" fill="#FF9900" p-id="59724"></path><path d="M402.92636109 648.18755341H275.39054107c1.46770478-12.59136201 5.87081909-24.41024781 13.28659058-35.53390503 7.41577148-11.12365723 21.32034302-24.17850495 41.71371461-39.3190384 12.43686677-9.26971435 20.39337158-16.29924774 23.86951446-21.08860016s5.25283813-9.34696198 5.25283813-13.67282867c0-4.63485718-1.69944763-8.6517334-5.17559051-11.97338105s-7.80200959-4.94384766-12.9776001-4.94384764c-5.40733338 0-9.88769531 1.69944763-13.28659057 5.09834289-3.47614289 3.39889526-5.79357148 9.42420959-6.95228577 18.07594298l-42.56343842-3.47614287c1.69944763-11.97338105 4.7121048-21.32034302 9.19246674-28.04088593 4.48036193-6.72054292 10.73741914-11.89613342 18.84841918-15.44952392s19.3119049-5.40733338 33.67996217-5.40733338c14.98603821 0 26.57318115 1.69944763 34.91592407 5.09834289 8.34274292 3.39889526 14.83154297 8.6517334 19.62089538 15.6812668 4.78935242 7.02953339 7.18402863 14.98603821 7.18402862 23.71501923 0 9.34696198-2.70366669 18.23043823-8.18824767 26.72767638s-15.37227631 17.84420014-29.81758118 27.96363831c-8.57448578 5.94806672-14.29080964 10.04219055-17.14897155 12.43686676s-6.25705719 5.484581-10.1966858 9.26971435h66.35570527l-0.07724762 34.83867646zM716.08821106 492.61084747v155.65395355h-43.02692414v-101.9668579c-6.95228576 5.25283813-13.67282868 9.57870484-20.16162872 12.82310485-6.48880005 3.24440003-14.67704773 6.41155243-24.48749542 9.4242096V533.62933349c14.44530487-4.63485718 25.72345734-10.27393342 33.67996216-16.83998107 8.03375244-6.56604767 14.29080964-14.59980011 18.77117157-24.17850495h35.22491455z" fill="#FF9900" p-id="59725"></path></svg>