<?xml version="1.0" standalone="no"?><!DOCTYPE svg PUBLIC "-//W3C//DTD SVG 1.1//EN" "http://www.w3.org/Graphics/SVG/1.1/DTD/svg11.dtd"><svg t="1649488826617" class="icon" viewBox="0 0 1024 1024" version="1.1" xmlns="http://www.w3.org/2000/svg" p-id="55232" xmlns:xlink="http://www.w3.org/1999/xlink" width="200" height="200"><defs><style type="text/css">@font-face { font-family: feedback-iconfont; src: url("//at.alicdn.com/t/font_1031158_u69w8yhxdu.woff2?t=1630033759944") format("woff2"), url("//at.alicdn.com/t/font_1031158_u69w8yhxdu.woff?t=1630033759944") format("woff"), url("//at.alicdn.com/t/font_1031158_u69w8yhxdu.ttf?t=1630033759944") format("truetype"); }
</style></defs><path d="M746.857471 454.619128c-22.3838-108.602464-118.190843-191.614086-236.358149-191.614086-92.604094 0-172.457794 51.061956-210.772424 127.71066-98.964966 12.795421-172.455747 92.651167-172.455747 191.614086 0 105.397469 86.215594 191.614086 191.614086 191.614086l415.177837 0c89.445148 0 159.66442-70.218248 159.66442-159.66135C893.727493 531.269879 826.666144 460.981023 746.857471 454.619128M734.063073 710.089567l-415.177837 0c-70.219271 0-127.711683-57.494459-127.711683-127.759779 0-70.218248 57.492412-127.71066 127.711683-127.71066l22.361287 0c22.3838-73.493851 89.445148-127.757732 169.252799-127.757732 95.807043 0 175.660742 79.854722 175.660742 175.661765l0 15.95232 47.904033 0c54.265928 0 95.807043 41.540092 95.807043 95.807043C829.870116 668.546406 788.329001 710.089567 734.063073 710.089567" p-id="55233" fill="#336699"></path></svg>