<?xml version="1.0" standalone="no"?><!DOCTYPE svg PUBLIC "-//W3C//DTD SVG 1.1//EN" "http://www.w3.org/Graphics/SVG/1.1/DTD/svg11.dtd"><svg t="1686670328546" class="icon" viewBox="0 0 1024 1024" version="1.1" xmlns="http://www.w3.org/2000/svg" p-id="4446" xmlns:xlink="http://www.w3.org/1999/xlink" width="200" height="200"><path d="M618.3 985.1m-20.2 0a20.2 20.2 0 1 0 40.4 0 20.2 20.2 0 1 0-40.4 0Z" fill="#FF9900" p-id="4447"></path><path d="M644.8 315.2l-71.9-10.1-32.3-63.6c-5.1-10.1-15.3-16.3-26.6-16.3s-21.5 6.3-26.6 16.3L455 305.1l-71.9 10.1c-11.5 1.6-20.8 9.5-24.3 20.5s-0.5 22.8 7.9 30.8l51.5 48.7-12.2 69c-2 11.2 2.5 22.4 11.6 29.2 9.2 6.8 21.2 7.8 31.3 2.6l64.9-33.1 64.9 33.1c4.3 2.2 9 3.3 13.6 3.3 6.3 0 12.5-2 17.7-5.9 9.2-6.8 13.6-18 11.6-29.2l-12.2-69 51.5-48.7c8.4-8 11.4-19.7 7.9-30.8-3.3-11-12.6-18.8-24-20.5zM504.2 260z m73.1 129.6c-7.3 6.9-10.6 17-8.9 26.9l9.4 53.2-50.3-25.7c-8.5-4.3-18.7-4.3-27.2 0L450 469.7l9.4-53.2c1.8-9.9-1.6-20-8.9-26.9l-39.3-37.2 55.1-7.8c9.6-1.4 18-7.4 22.4-16l25.1-49.5 25.1 49.5c4.4 8.7 12.8 14.7 22.4 16l55.1 7.8-39.1 37.2z" fill="#FF9900" p-id="4448"></path><path d="M1015.4 264.5c-0.4-15.9-0.8-32.4-0.4-47.9 2.4-16.3-3.5-31-16.6-41.6-16.1-13-44.2-19.9-83.4-20.7-9.1-0.2-21 0.1-32 0.7v-53.7c0-45.6-41.7-82.8-93-82.8H233.2c-51.3 0-93 37.1-93 82.8v54.4H72.6c-35.5 0-64.4 26.1-64.4 58.2v127.4c0 38.2 16.3 74.8 45.9 103 25.2 24 58.2 40.2 94.2 46.5 7 28.5 18.5 56 34.1 81.9 17.8 29.4 40.7 56.2 68 79.6 34.2 29.4 73.8 52.4 117.9 68.5 36.7 13.4 75.2 21.5 114.7 24.1v80.9H321.5c-39.1 0-70.8 28.6-70.8 63.7v52.7c0 35.1 31.8 63.7 70.8 63.7h177.1c11.3 0 20.4-9.1 20.4-20.4s-9.1-20.4-20.4-20.4H321.5c-16.3 0-30-10.5-30-22.9v-52.7c0-12.4 13.8-22.9 30-22.9h364c16.3 0 30 10.5 30 22.9v52.7c0 12.4-13.8 22.9-30 22.9-11.3 0-20.4 9.1-20.4 20.4s9.1 20.4 20.4 20.4c39.1 0 70.8-28.6 70.8-63.7v-52.7c0-35.1-31.8-63.7-70.8-63.7H523.8v-80.1c45.3-1.3 89.3-9.6 131.1-24.8 44.1-16.1 83.8-39.1 117.9-68.5 34.4-29.6 61.4-64 80.4-102.3 9.6-19.4 16.9-39.4 21.9-59.9 62.8-12.9 103.4-41.4 123.8-86.9 18.8-41.9 17.7-91.1 16.5-138.8zM49 341.3V213.9c0-9.3 11-17.4 23.6-17.4h67.6v227.3c0 7.9 0.3 15.8 1 23.7-54.1-14.6-92.2-57-92.2-106.2zM511.7 705c-88.5 0-171.8-29.7-234.6-83.7-49-42.1-80.7-94.9-91.8-152.7-2.8-14.7-4.2-29.8-4.2-44.9V101.3c0-22.8 23.9-42 52.2-42h556.9c28.3 0 52.2 19.2 52.2 42v76.5c-0.6 27.3-0.4 60.9 0 96.7v135c-0.7 24.5-1.9 45.3-4.3 59.3C812.7 602.6 676 705 511.7 705z m450.1-318.6c-8.8 19.5-26.5 45.6-79.6 60.1 0.6-7.5 0.9-15.1 0.9-22.7v-13.5c1-37.5 0.5-82.4 0.1-126.4 0-3.2-0.1-6.3-0.1-9.5v-78.5c9.6-0.7 22.7-1.2 36.6-0.7 31.8 1.2 48.8 7.1 54 12.3 1 1 1.3 1.3 0.9 3.5l-0.3 1.5v1.5c-0.5 17-0.1 34.5 0.3 51.4 1.1 45.2 2.1 87.8-12.8 121z" fill="#FF9900" p-id="4449"></path></svg>