<?xml version="1.0" standalone="no"?><!DOCTYPE svg PUBLIC "-//W3C//DTD SVG 1.1//EN" "http://www.w3.org/Graphics/SVG/1.1/DTD/svg11.dtd"><svg t="1649484350085" class="icon" viewBox="0 0 1024 1024" version="1.1" xmlns="http://www.w3.org/2000/svg" p-id="7530" xmlns:xlink="http://www.w3.org/1999/xlink" width="200" height="200"><defs><style type="text/css">@font-face { font-family: feedback-iconfont; src: url("//at.alicdn.com/t/font_1031158_u69w8yhxdu.woff2?t=1630033759944") format("woff2"), url("//at.alicdn.com/t/font_1031158_u69w8yhxdu.woff?t=1630033759944") format("woff"), url("//at.alicdn.com/t/font_1031158_u69w8yhxdu.ttf?t=1630033759944") format("truetype"); }
</style></defs><path d="M275.7 398.6v18c0 8.8 7.2 16 16 16h336c8.8 0 16-7.2 16-16v-18c0-8.8-7.2-16-16-16h-336c-8.8 0-16 7.2-16 16zM643.7 546.9c0-8.8-7.2-16-16-16h-336c-8.8 0-16 7.2-16 16v18c0 8.8 7.2 16 16 16h336c8.8 0 16-7.2 16-16v-18zM627.7 679.2h-336c-8.8 0-16 7.2-16 16v18c0 8.8 7.2 16 16 16h336c8.8 0 16-7.2 16-16v-18c0-8.8-7.2-16-16-16z" fill="#FF9900" p-id="7531"></path><path d="M846.5 504.5v363.7c0 5.4-4.6 10-10 10h-648c-5.4 0-10-4.6-10-10v-710c0-5.4 4.6-10 10-10h395.3c10-18.2 22.2-35 36.3-50H188.5c-33 0-60 27-60 60v710c0 33 27 60 60 60h648c33 0 60-27 60-60V488.6c-15.9 7-32.6 12.4-50 15.9z" fill="#FF9900" p-id="7532"></path><path d="M782.3 152.3c30.9 2.4 48.1 17.8 51.7 46.3 3.6 24.9-10.7 48.1-42.8 69.5-35.6 24.9-52.9 55.2-51.7 90.8v16h55.2v-14.3c-2.4-20.2 8.3-38 32.1-53.4 46.3-32.1 68.9-67.7 67.7-106.9-6-64.1-42.2-98-108.7-101.5-74.8-2.4-120 30.9-135.4 99.8l55.2 17.8c8.4-45.1 33.9-66.5 76.7-64.1zM734.2 410.6h65.9v62.3h-65.9z" fill="#FF9900" p-id="7533"></path></svg>