<?xml version="1.0" standalone="no"?><!DOCTYPE svg PUBLIC "-//W3C//DTD SVG 1.1//EN" "http://www.w3.org/Graphics/SVG/1.1/DTD/svg11.dtd"><svg t="1666527905846" class="icon" viewBox="0 0 1024 1024" version="1.1" xmlns="http://www.w3.org/2000/svg" p-id="2318" xmlns:xlink="http://www.w3.org/1999/xlink" width="200" height="200"><path d="M892.2 489.5H130.5c-16.9 0-31.3-11.6-35-28.1-3.7-16.5 4.5-33.1 19.9-40.2L877.1 67.7c11.2-5.2 24-4.3 34.4 2.3 10.4 6.6 16.5 17.9 16.5 30.2v353.5c0 19.7-16.1 35.8-35.8 35.8z m-717.4-45.6h707.6V115.5L174.8 443.9z" fill="#336699" p-id="2319"></path><path d="M905.2 570v353.5c0 9.5-9.9 15.8-18.5 11.8L125 581.8c-12.7-5.9-8.5-24.8 5.5-24.8h761.7c7.2-0.1 13 5.8 13 13z" fill="#336699" p-id="2320"></path><path d="M892.2 959.3c-5.1 0-10.3-1.1-15.1-3.4L115.4 602.5c-15.4-7.1-23.6-23.7-19.9-40.2 3.7-16.5 18-28.1 35-28.1h761.7c19.8 0 35.8 16.1 35.8 35.8v353.5c0 12.3-6.2 23.6-16.5 30.2-5.9 3.7-12.6 5.6-19.3 5.6zM174.8 579.7l707.6 328.4V579.7H174.8z" fill="#336699" p-id="2321"></path></svg>