<?xml version="1.0" standalone="no"?><!DOCTYPE svg PUBLIC "-//W3C//DTD SVG 1.1//EN" "http://www.w3.org/Graphics/SVG/1.1/DTD/svg11.dtd"><svg t="1649488843287" class="icon" viewBox="0 0 1024 1024" version="1.1" xmlns="http://www.w3.org/2000/svg" p-id="55478" xmlns:xlink="http://www.w3.org/1999/xlink" width="200" height="200"><defs><style type="text/css">@font-face { font-family: feedback-iconfont; src: url("//at.alicdn.com/t/font_1031158_u69w8yhxdu.woff2?t=1630033759944") format("woff2"), url("//at.alicdn.com/t/font_1031158_u69w8yhxdu.woff?t=1630033759944") format("woff"), url("//at.alicdn.com/t/font_1031158_u69w8yhxdu.ttf?t=1630033759944") format("truetype"); }
</style></defs><path d="M748.794589 413.831166c-22.410406-108.848057-118.435413-192.047967-236.84729-192.047967-48.01148 0-92.857874 12.824073-128.047328 38.399565l48.01148 48.013527c22.435988-15.989159 51.223638-22.412452 80.034824-22.412452 96.02296 0 176.012759 80.034824 176.012759 176.057785l0 15.988136 48.01148 0c54.457286 0 96.02296 41.635259 96.02296 96.02296 0 35.236526-19.200294 67.213821-51.17759 83.249029l48.01148 48.01148c41.589211-28.813233 67.212798-76.824713 67.212798-131.260509C896.043235 490.653833 828.830437 420.207387 748.794589 413.831166M223.878418 263.419482l89.599667 86.411045c-102.424764 6.376221-185.623651 89.599667-185.623651 192.046944 0 105.634876 86.434581 192.046944 192.046944 192.046944l374.506533 0 64.00064 63.999616 41.612747-41.635259-534.554692-534.506597L223.878418 263.419482zM374.312616 413.831166l256.045537 256.047584-310.457798 0c-70.423933 0-128.047328-57.624419-128.047328-128.000256 0-70.423933 57.623395-128.047328 128.047328-128.047328L374.312616 413.831166z" p-id="55479" fill="#336699"></path></svg>