<?xml version="1.0" standalone="no"?><!DOCTYPE svg PUBLIC "-//W3C//DTD SVG 1.1//EN" "http://www.w3.org/Graphics/SVG/1.1/DTD/svg11.dtd"><svg t="1686663991356" class="icon" viewBox="0 0 1024 1024" version="1.1" xmlns="http://www.w3.org/2000/svg" p-id="1597" xmlns:xlink="http://www.w3.org/1999/xlink" width="200" height="200"><path d="M235.52 784.384h-18.432c-16.384 0-28.672-12.288-28.672-28.672V268.288c0-16.384 12.288-28.672 28.672-28.672h225.28c16.384 0 28.672 12.288 28.672 28.672v131.072c0 16.384 12.288 28.672 28.672 28.672 16.384 0 28.672-12.288 28.672-28.672v-131.072c0-47.104-36.864-83.968-83.968-83.968h-225.28c-47.104 0-83.968 36.864-83.968 83.968v487.424c0 47.104 36.864 83.968 83.968 83.968h18.432c16.384 0 28.672-12.288 28.672-28.672-2.048-14.336-16.384-26.624-30.72-26.624z m374.784-544.768c65.536 0 126.976 28.672 172.032 75.776h-40.96c-16.384 0-28.672 12.288-28.672 28.672 0 16.384 12.288 28.672 28.672 28.672h94.208c8.192 0 14.336-2.048 20.48-8.192l2.048-2.048c4.096-4.096 6.144-12.288 6.144-18.432v-94.208c0-16.384-12.288-28.672-28.672-28.672-16.384 0-28.672 12.288-28.672 28.672v10.24c-53.248-49.152-122.88-77.824-196.608-77.824-16.384 0-28.672 12.288-28.672 28.672 0 16.384 12.288 28.672 28.672 28.672z m0 0" fill="#336699" p-id="1598"></path><path d="M815.104 446.464H366.592c-47.104 0-83.968 36.864-83.968 83.968v225.28c0 47.104 36.864 83.968 83.968 83.968h448.512c47.104 0 83.968-36.864 83.968-83.968v-225.28c0-47.104-36.864-83.968-83.968-83.968z m28.672 309.248c0 16.384-12.288 28.672-28.672 28.672H366.592c-16.384 0-28.672-12.288-28.672-28.672v-225.28c0-16.384 12.288-28.672 28.672-28.672h448.512c16.384 0 28.672 12.288 28.672 28.672v225.28z m0 0" fill="#336699" p-id="1599"></path></svg>