<?xml version="1.0" standalone="no"?><!DOCTYPE svg PUBLIC "-//W3C//DTD SVG 1.1//EN" "http://www.w3.org/Graphics/SVG/1.1/DTD/svg11.dtd"><svg t="1625377506082" class="icon" viewBox="0 0 1024 1024" version="1.1" xmlns="http://www.w3.org/2000/svg" p-id="2420" xmlns:xlink="http://www.w3.org/1999/xlink" width="200" height="200"><defs><style type="text/css"></style></defs><path d="M 685.227 945.067 c -103.253 0 -153.387 -23.2533 -196.907 -58.0267 c -0.853333 -0.64 -1.70667 -1.49333 -2.56 -2.34667 c -0.426667 -0.213333 -1.70667 -1.06667 -2.98667 -1.92 c -3.84 -2.56 -8.53333 -5.76 -12.8 -10.0267 l -212.693 -212.053 c -48.4267 -48.8533 -36.0533 -119.467 3.84 -159.36 c 33.92 -33.92 98.9867 -43.52 143.787 -6.82667 V 280.533 c 0 -28.16 11.7333 -55.4667 32.8533 -77.2267 c 40.7467 -41.8133 104.32 -44.5867 148.267 -6.82667 c 23.04 19.84 36.0533 50.1333 36.0533 83.4133 v 32 h 3.62667 c 36.48 0 67.6267 15.5733 86.4 41.6 c 7.46667 -1.70667 15.36 -2.56 23.8933 -2.56 c 36.2667 0 67.4133 15.5733 86.1867 41.3867 c 9.17333 -1.92 17.92 -2.34667 24.1067 -2.34667 c 29.2267 0 55.8933 11.52 75.0933 32.2133 c 20.2667 21.76 30.08 51.4133 27.9467 83.4133 v 148.053 c -0.213333 147.627 -20.6933 291.413 -264.107 291.413 Z m -155.947 -107.093 c 34.56 27.3067 71.4667 43.0933 155.947 43.0933 c 185.813 0 199.893 -90.0267 199.893 -227.413 v -149.333 v -2.34667 c 1.06667 -14.72 -2.77333 -27.52 -11.0933 -36.48 c -7.04 -7.68 -16.8533 -11.7333 -28.16 -11.7333 c -9.6 0 -16 2.13333 -17.7067 3.2 c -8.32 7.25333 -20.2667 9.6 -30.72 6.4 a 34.56 34.56 0 0 1 -22.4 -23.04 c -6.4 -23.2533 -29.6533 -25.6 -39.4667 -25.6 c -8.53333 0 -14.08 1.70667 -20.9067 5.97333 c -8.53333 5.33333 -20.0533 6.61333 -29.44 3.2 c -9.6 -3.62667 -17.4933 -12.16 -20.2667 -21.9733 c -6.4 -23.68 -29.8667 -26.24 -39.4667 -26.24 c -4.05333 0 -16 2.77333 -20.48 3.84 c -10.4533 2.34667 -22.6133 5.12 -34.9867 -4.69333 c -7.68 -5.97333 -12.16 -15.36 -12.16 -24.96 v -69.9733 c 0 -14.5067 -5.12 -27.52 -13.8667 -34.9867 c -18.1333 -15.5733 -43.7333 -14.2933 -60.8 2.98667 c -9.38667 9.6 -14.5067 21.3333 -14.5067 32.64 v 287.573 c 0 13.0133 -8.53333 25.8133 -20.48 30.72 c -12.5867 5.12 -26.6667 2.34667 -36.2667 -7.25333 l -44.8 -44.8 c -18.3467 -18.3467 -48.8533 -12.16 -61.0133 0 c -0.426667 0.426667 -35.4133 37.12 -3.84 68.9067 l 212.693 211.84 c 0.426667 0.213333 1.70667 1.06667 2.98667 1.92 c 3.62667 2.34667 7.68 5.12 11.3067 8.53333 Z" fill="#2c2c2c" p-id="2421"></path><path d="M 682.667 298.027 c -11.7333 0 -21.3333 -9.38667 -21.3333 -21.3333 c -0.426667 -82.1333 -67.4133 -148.907 -149.333 -148.907 c -82.3467 0 -149.333 66.7733 -149.333 148.907 c 0 11.7333 -9.6 21.3333 -21.3333 21.3333 s -21.3333 -9.6 -21.3333 -21.3333 c 0 -105.6 86.1867 -191.573 192 -191.573 c 105.387 0 191.573 85.9733 192 191.573 c 0 11.52 -9.38667 21.12 -21.3333 21.3333 Z M 696.747 576 c -17.7067 0 -32 -14.2933 -32 -32 v -149.333 c 0 -17.7067 14.2933 -32 32 -32 s 32 14.2933 32 32 v 149.333 c 0 17.7067 -14.2933 32 -32 32 Z M 590.08 576 c -17.7067 0 -32 -14.2933 -32 -32 v -192 c 0 -17.7067 14.2933 -32 32 -32 s 32 14.2933 32 32 v 192 c 0 17.7067 -14.2933 32 -32 32 Z M 803.413 576 c -17.7067 0 -32 -14.2933 -32 -32 v -128 c 0 -17.7067 14.2933 -32 32 -32 s 32 14.2933 32 32 v 128 c 0 17.7067 -14.2933 32 -32 32 Z" fill="#2c2c2c" p-id="2422"></path></svg>