<?xml version="1.0" standalone="no"?><!DOCTYPE svg PUBLIC "-//W3C//DTD SVG 1.1//EN" "http://www.w3.org/Graphics/SVG/1.1/DTD/svg11.dtd"><svg t="1695554541406" class="icon" viewBox="0 0 1024 1024" version="1.1" xmlns="http://www.w3.org/2000/svg" p-id="1505" xmlns:xlink="http://www.w3.org/1999/xlink" width="200" height="200"><path d="M742.268 98c94.93 0 149.12 112.984 92.164 192.144l-192.04 266.878c-9.96 13.868-15.356 30.71-15.356 48.036v175.992c0 23.76-10.098 46.308-27.632 61.524l-76.808 66.712c-50.008 43.47-125.952 6.362-125.952-61.49v-242.74c0-17.324-5.396-34.166-15.356-48.034l-192.04-266.88C132.29 210.984 186.482 98 281.412 98z m0 69.166H281.412c-17.5 0-32.37 9.82-40.67 27.148-8.368 17.464-7.712 38.248 4.67 55.436l192.006 266.88c18.57 25.798 28.392 56.854 28.392 88.428v242.74c0 3.734 0.934 5.808 1.728 7.054a9.27 9.27 0 0 0 3.666 3.284c1.454 0.692 2.526 0.726 2.974 0.658 0.208 0 1.212-0.104 3.08-1.73l76.808-66.71c1.972-1.73 3.804-5.014 3.804-9.304V605.06c0-31.574 9.82-62.63 28.392-88.43l192.006-266.878c12.38-17.188 13.038-37.972 4.668-55.436-8.3-17.326-23.17-27.148-40.668-27.148z" fill="#ABAFD1" p-id="1506"></path><path d="M408.09 236.332c-19.09 0-34.582 15.494-34.582 34.584 0 19.09 15.492 34.582 34.582 34.582h207.5c19.09 0 34.582-15.492 34.582-34.582s-15.492-34.584-34.582-34.584h-207.5z" fill="#767BFA" p-id="1507"></path></svg>