<?xml version="1.0" standalone="no"?><!DOCTYPE svg PUBLIC "-//W3C//DTD SVG 1.1//EN" "http://www.w3.org/Graphics/SVG/1.1/DTD/svg11.dtd"><svg t="1649484642369" class="icon" viewBox="0 0 1024 1024" version="1.1" xmlns="http://www.w3.org/2000/svg" p-id="14590" xmlns:xlink="http://www.w3.org/1999/xlink" width="200" height="200"><defs><style type="text/css">@font-face { font-family: feedback-iconfont; src: url("//at.alicdn.com/t/font_1031158_u69w8yhxdu.woff2?t=1630033759944") format("woff2"), url("//at.alicdn.com/t/font_1031158_u69w8yhxdu.woff?t=1630033759944") format("woff"), url("//at.alicdn.com/t/font_1031158_u69w8yhxdu.ttf?t=1630033759944") format("truetype"); }
</style></defs><path d="M194.021053 908.126316c-13.473684 0-24.252632-10.778947-24.252632-24.252632v-70.063158c0-137.431579 86.231579-266.778947 215.578947-317.978947l18.863158-8.084211-16.168421-13.473684c-48.505263-40.421053-78.147368-97.010526-78.147368-158.989473 0-110.484211 88.926316-199.410526 199.410526-199.410527s199.410526 88.926316 199.410526 199.410527c0 61.978947-26.947368 121.263158-78.147368 158.989473l-10.778947 13.473684 18.863158 8.084211c129.347368 51.2 215.578947 177.852632 218.273684 317.978947v70.063158c0 13.473684-10.778947 24.252632-24.252632 24.252632H194.021053zM512 517.389474c-164.378947 0-296.421053 132.042105-296.421053 296.421052V862.315789h592.842106v-45.810526c0-164.378947-132.042105-299.115789-296.421053-299.115789zM512 161.684211c-83.536842 0-153.6 70.063158-153.6 153.6s67.368421 153.6 150.905263 153.6h2.694737c83.536842 0 153.6-70.063158 153.6-153.6S598.231579 161.684211 512 161.684211z" fill="#FF9900" p-id="14591"></path><path d="M972.8 803.031579c-13.473684 0-24.252632-10.778947-24.252632-24.252632v-53.894736c0-102.4-70.063158-194.021053-169.768421-218.273685-8.084211-2.694737-16.168421-8.084211-18.863158-13.473684v-18.863158-5.389473c0-2.694737 2.694737-2.694737 2.694737-2.694737l10.778948-8.084211c43.115789-18.863158 70.063158-59.284211 70.063158-107.789474 0-53.894737-35.031579-99.705263-86.231579-115.873684-13.473684-2.694737-18.863158-16.168421-16.168421-29.642105 2.694737-10.778947 13.473684-16.168421 21.557894-16.168421h5.389474c72.757895 18.863158 123.957895 83.536842 123.957895 158.989474 0 40.421053-16.168421 80.842105-43.11579 110.48421l-10.778947 10.778948 13.473684 8.08421c91.621053 48.505263 145.515789 140.126316 145.51579 242.526316v53.894737c0 18.863158-10.778947 29.642105-24.252632 29.642105z m-921.6 0c-13.473684 0-24.252632-10.778947-24.252632-24.252632v-53.894736c0-102.4 56.589474-194.021053 148.210527-239.831579l13.473684-10.778948-10.778947-10.778947C150.905263 431.157895 134.736842 393.431579 134.736842 353.010526c0-75.452632 51.2-142.821053 126.652632-161.68421h5.389473c10.778947 0 18.863158 8.084211 21.557895 18.863158 2.694737 13.473684-5.389474 24.252632-18.863158 29.642105-53.894737 13.473684-91.621053 59.284211-91.621052 115.873684 0 45.810526 26.947368 88.926316 70.063157 107.789474 2.694737 0 2.694737 0 5.389474 2.694737v5.389473h5.389474v18.863158c-2.694737 8.084211-10.778947 13.473684-18.863158 13.473684-102.4 24.252632-172.463158 115.873684-172.463158 218.273685v53.894737c8.084211 16.168421-2.694737 26.947368-16.168421 26.947368z" fill="#FF9900" p-id="14592"></path></svg>