<svg width="1779" height="1021" xmlns="http://www.w3.org/2000/svg" p-id="2415" version="1.1" class="icon" t="1726925018306">

 <g>
  <title>Layer 1</title>
  <path id="svg_1" p-id="2416" fill="#109bb2" d="m0,0l1778.8973,0l0,1020.87054l-1778.8973,0l0,-1020.87054z"/>
  <path id="svg_2" p-id="2417" fill="#FF9900" d="m239.26653,181.69065l1300.39462,0l0,656.27392l-1300.39462,0l0,-656.27392z"/>
  <path id="svg_3" p-id="2418" fill="#FFFFFF" d="m239.26653,181.69065l0,656.27392l1300.39462,0l0,-656.27392l-1300.39462,0zm656.27392,12.15322l205.0856,0l0,631.96748l-205.0856,0l0,-631.96748zm-12.15322,631.99786l-205.0856,0l0,-631.96748l205.0856,0l0,631.96748zm-631.96748,-631.99786l414.72866,0l0,631.96748l-414.72866,0l0,-631.96748zm1276.08818,631.99786l-414.72866,0l0,-631.96748l414.72866,0l0,631.96748z"/>
 </g>
</svg>