<?xml version="1.0" standalone="no"?><!DOCTYPE svg PUBLIC "-//W3C//DTD SVG 1.1//EN" "http://www.w3.org/Graphics/SVG/1.1/DTD/svg11.dtd"><svg t="1727108864737" class="icon" viewBox="0 0 1024 1024" version="1.1" xmlns="http://www.w3.org/2000/svg" p-id="5705" xmlns:xlink="http://www.w3.org/1999/xlink" width="200" height="200"><path d="M738 136.2H38v750h950v-750H738z m-50 50v50H363v-50h325z m250 650H88v-650h225v100h425v-100h200v650z" fill="#FF9900" p-id="5706"></path><path d="M313 436.2c-41.4 0-75 33.6-75 75s33.6 75 75 75 75-33.6 75-75-33.6-75-75-75z m0 100c-13.8 0-25-11.2-25-25s11.2-25 25-25 25 11.2 25 25-11.2 25-25 25z" fill="#FF9900" p-id="5707"></path><path d="M438 461.2m-25 0a25 25 0 1 0 50 0 25 25 0 1 0-50 0Z" fill="#FF9900" p-id="5708"></path><path d="M538 436.2m-25 0a25 25 0 1 0 50 0 25 25 0 1 0-50 0Z" fill="#FF9900" p-id="5709"></path><path d="M698.4 340.5L663 375.9l-35.4-35.4-35.3 35.4 35.3 35.3-35.3 35.4 35.3 35.3 35.4-35.3 35.4 35.3 35.3-35.3-35.3-35.4 35.3-35.3z" fill="#FF9900" p-id="5710"></path><path d="M785.4 674L750 638.7c-79.2 79.2-203.1 86.7-291 22.9h69.4v-50h-150v150h50V701c48.2 35.4 105.3 53.4 162.5 53.4 70.4 0 140.8-26.8 194.5-80.4z" fill="#D3C089" p-id="5711"></path></svg>